<?xml version="1.0" encoding="utf-8"?>
<!DOCTYPE svg PUBLIC "-//W3C//DTD SVG 1.1//EN" "http://www.w3.org/Graphics/SVG/1.1/DTD/svg11.dtd">
<svg version="1.1" id="icon_linkedin_15x15" xmlns="http://www.w3.org/2000/svg" xmlns:xlink="http://www.w3.org/1999/xlink" x="0px" y="0px" width="15px" height="15px" viewBox="0 0 15 15" enable-background="new 0 0 15 15" xml:space="preserve">
	<g>
		<path fill="#0073A5" d="M8.066,6.765V6.746c-0.004,0.006-0.01,0.013-0.013,0.019H8.066z"/>
		<path fill="#0073A5" d="M1.11,0C0.495,0,0,0.481,0,1.074v12.851C0,14.519,0.495,15,1.11,15h12.784C14.503,15,15,14.519,15,13.926
			V1.074C15,0.481,14.503,0,13.893,0H1.11z M4.547,12.557H2.28V5.782h2.268V12.557z M3.414,4.858H3.399
			c-0.759,0-1.251-0.52-1.251-1.171c0-0.663,0.505-1.17,1.282-1.17c0.776,0,1.251,0.507,1.266,1.17
			C4.696,4.338,4.205,4.858,3.414,4.858z M12.718,12.557h-2.268V8.932c0-0.91-0.327-1.531-1.147-1.531
			c-0.626,0-0.998,0.418-1.162,0.823C8.079,8.37,8.066,8.572,8.066,8.773v3.783H5.801c0,0,0.029-6.138,0-6.774h2.265v0.964
			c0.299-0.463,0.837-1.123,2.043-1.123c1.491,0,2.61,0.968,2.61,3.05V12.557z"/>
	</g>
</svg>